Coordinates
version=1
nRows=27
nColumns=38
inDegrees=no

Units are S.I. units (second, meters, Newtons, ...)
If the header above contains a line with 'inDegrees', this indicates whether rotational values are in degrees (yes) or radians (no).

endheader
time	pelvis_tilt	pelvis_list	pelvis_rotation	pelvis_tx	pelvis_ty	pelvis_tz	hip_flexion_r	hip_adduction_r	hip_rotation_r	knee_angle_r	ankle_angle_r	subtalar_angle_r	mtp_angle_r	hip_flexion_l	hip_adduction_l	hip_rotation_l	knee_angle_l	ankle_angle_l	subtalar_angle_l	mtp_angle_l	lumbar_extension	lumbar_bending	lumbar_rotation	arm_flex_r	arm_add_r	arm_rot_r	elbow_flex_r	pro_sup_r	wrist_flex_r	wrist_dev_r	arm_flex_l	arm_add_l	arm_rot_l	elbow_flex_l	pro_sup_l	wrist_flex_l	wrist_dev_l
1.11	0.214368	1.42068	-1.67753	1.04244	0.059668	0.944075	0.306035	-0.223637	-0.313815	0.704971	0.108591	0	0	-0.286689	0.0674829	-0.0434262	0.0140099	0.164558	0	0	-0.269235	-0.0503354	-0.218862	-0.178394	-0.201659	0.134307	0.622705	0.465873	0	0	0.0043053	-0.445391	0.281551	0.767388	1.1963	0	0
1.12	0.211218	1.42249	-1.6724	1.04224	0.0505906	0.942732	0.31019	-0.220197	-0.330956	0.65442	0.107821	0	0	-0.302244	0.065039	-0.0391574	0.000501774	0.167304	0	0	-0.268566	-0.0486644	-0.220782	-0.176086	-0.201003	0.130605	0.628442	0.468984	0	0	0.0106232	-0.448589	0.283375	0.769816	1.19302	0	0
1.13	0.221787	1.42424	-1.68421	1.04184	0.0419249	0.94121	0.315634	-0.219694	-0.352709	0.604527	0.115849	0	0	-0.312671	0.0660943	-0.0348474	0	0.169949	0	0	-0.268578	-0.048043	-0.219304	-0.171701	-0.202513	0.127611	0.633401	0.471216	0	0	0.0166099	-0.449711	0.285803	0.772083	1.19087	0	0
1.14	0.22807	1.42623	-1.69103	1.04152	0.0334579	0.939528	0.32061	-0.215216	-0.367102	0.554678	0.121126	0	0	-0.322174	0.0652526	-0.0358148	0	0.175414	0	0	-0.268624	-0.0478147	-0.21791	-0.168079	-0.202381	0.124913	0.63836	0.474106	0	0	0.0240023	-0.452308	0.289913	0.773651	1.18904	0	0
1.15	0.236118	1.4291	-1.70073	1.04076	0.0248699	0.937613	0.326451	-0.209239	-0.376962	0.504463	0.127495	0	0	-0.330409	0.0649299	-0.0375298	0	0.18211	0	0	-0.268098	-0.0479794	-0.214961	-0.163864	-0.202385	0.122698	0.642517	0.477473	0	0	0.0322026	-0.45461	0.295495	0.774324	1.18813	0	0
1.16	0.25014	1.4326	-1.71757	1.03989	0.0162936	0.935541	0.332791	-0.202297	-0.380441	0.453975	0.134038	0	0	-0.337757	0.0654955	-0.0400019	0	0.188814	0	0	-0.267009	-0.0490713	-0.210684	-0.159475	-0.202361	0.120305	0.646102	0.481199	0	0	0.0407954	-0.456385	0.301986	0.773739	1.18801	0	0
1.17	0.266684	1.43662	-1.73773	1.03889	0.00767459	0.933355	0.338764	-0.194057	-0.377619	0.40265	0.139636	0	0	-0.344353	0.0663194	-0.0435001	0	0.195556	0	0	-0.265427	-0.0504337	-0.20563	-0.155066	-0.202317	0.117802	0.649434	0.485083	0	0	0.0493264	-0.457526	0.308963	0.771923	1.18803	0	0
1.18	0.28495	1.44119	-1.7598	1.03782	-0.0010122	0.931081	0.343996	-0.184827	-0.368848	0.350698	0.143367	0	0	-0.350044	0.0671253	-0.0472498	0	0.202966	0	0	-0.26337	-0.0517824	-0.200274	-0.15084	-0.202141	0.115184	0.652649	0.489218	0	0	0.0579667	-0.458161	0.315981	0.769302	1.18918	0	0
1.19	0.305947	1.44613	-1.78468	1.03672	-0.00979178	0.928757	0.348196	-0.175102	-0.353868	0.299007	0.14449	0	0	-0.355059	0.0679863	-0.0509744	0	0.210461	0	0	-0.260873	-0.053145	-0.194958	-0.146883	-0.201881	0.111721	0.655717	0.492889	0	0	0.0662451	-0.458228	0.322552	0.765921	1.19202	0	0
1.2	0.327746	1.45096	-1.81006	1.03561	-0.018733	0.926454	0.349977	-0.164935	-0.332701	0.247303	0.141698	0	0	-0.360019	0.068632	-0.0545096	0	0.218459	0	0	-0.258354	-0.0542933	-0.190014	-0.143373	-0.20154	0.107891	0.658649	0.496841	0	0	0.0738785	-0.457691	0.328189	0.761891	1.19715	0	0
1.21	0.350085	1.45523	-1.83518	1.03453	-0.0279494	0.924217	0.349151	-0.155506	-0.309098	0.198131	0.13577	0	0	-0.365578	0.0689385	-0.0571978	0	0.226827	0	0	-0.255986	-0.0553177	-0.185963	-0.140469	-0.201321	0.104812	0.661243	0.500024	0	0	0.0804054	-0.456664	0.332742	0.757337	1.20397	0	0
1.22	0.36664	1.45825	-1.85341	1.03347	-0.0375235	0.92213	0.344637	-0.146789	-0.286192	0.152645	0.127091	0	0	-0.372838	0.0683162	-0.0594178	0	0.235441	0	0	-0.254515	-0.0556377	-0.183086	-0.138489	-0.201173	0.101716	0.663901	0.502866	0	0	0.0858742	-0.455313	0.33675	0.751985	1.213	0	0
1.23	0.380765	1.46069	-1.8682	1.03249	-0.047401	0.920102	0.339668	-0.139959	-0.26767	0.116794	0.119466	0	0	-0.381011	0.0670979	-0.060716	0	0.243946	0	0	-0.253283	-0.0554124	-0.181786	-0.137184	-0.201268	0.0991769	0.666564	0.505089	0	0	0.0895041	-0.453762	0.339688	0.746634	1.22254	0	0
1.24	0.401394	1.46326	-1.88746	1.03149	-0.0580046	0.918133	0.334848	-0.137026	-0.256802	0.0914901	0.114923	0	0	-0.394743	0.0619137	-0.0697481	0	0.256034	0	0	-0.250662	-0.0555944	-0.182036	-0.137632	-0.200954	0.0958325	0.668735	0.50697	0	0	0.091209	-0.451682	0.341208	0.741168	1.23268	0	0
1.25	0.400199	1.46352	-1.88426	1.03062	-0.0684559	0.91649	0.33081	-0.133244	-0.252379	0.0817619	0.111728	0	0	-0.401967	0.0579749	-0.0708223	0	0.265594	0	0	-0.25156	-0.0535591	-0.183442	-0.137942	-0.200875	0.0922033	0.671258	0.508338	0	0	0.0920862	-0.44929	0.342129	0.736008	1.24162	0	0
1.26	0.391428	1.46299	-1.87222	1.02984	-0.0791876	0.915055	0.328194	-0.13068	-0.254824	0.0857699	0.109956	0	0	-0.40882	0.0527027	-0.0751659	0.01171	0.276832	0	0	-0.253142	-0.0505118	-0.186324	-0.138587	-0.201057	0.0894349	0.673251	0.509303	0	0	0.0917168	-0.446637	0.34303	0.730829	1.2477	0	0
1.27	0.377288	1.46219	-1.85423	1.02911	-0.0901397	0.913773	0.327384	-0.129005	-0.261908	0.10224	0.107521	0	0	-0.414704	0.0463475	-0.0829703	0.029054	0.289708	0	0	-0.254886	-0.0465863	-0.18994	-0.139602	-0.201446	0.0867717	0.675002	0.510731	0	0	0.0901873	-0.443327	0.343066	0.725208	1.25369	0	0
1.28	0.363132	1.46165	-1.83589	1.02837	-0.101301	0.912573	0.328033	-0.128135	-0.27018	0.12761	0.104683	0	0	-0.419503	0.0393497	-0.0919001	0.0484108	0.30211	0	0	-0.256056	-0.0423556	-0.19396	-0.140926	-0.202059	0.0846176	0.676156	0.512634	0	0	0.0875814	-0.439593	0.342585	0.719448	1.2594	0	0
1.29	0.34899	1.46157	-1.81686	1.02758	-0.112715	0.91143	0.328668	-0.127298	-0.278939	0.156263	0.103309	0	0	-0.423015	0.0313166	-0.10138	0.069589	0.313067	0	0	-0.256222	-0.0379668	-0.198878	-0.14286	-0.202276	0.081288	0.676821	0.514267	0	0	0.0833545	-0.435818	0.341355	0.713873	1.26501	0	0
1.3	0.3334	1.46195	-1.79558	1.02676	-0.124347	0.910407	0.328272	-0.125946	-0.287197	0.183115	0.102714	0	0	-0.425277	0.0220226	-0.110858	0.0924117	0.322939	0	0	-0.255672	-0.0331231	-0.205103	-0.144911	-0.202325	0.0780489	0.677112	0.515564	0	0	0.0771712	-0.431888	0.338781	0.708516	1.27015	0	0
1.31	0.314223	1.46267	-1.77058	1.02583	-0.13603	0.909576	0.326563	-0.123105	-0.292762	0.20358	0.0965665	0	0	-0.425732	0.0115834	-0.120849	0.117979	0.331594	0	0	-0.254966	-0.0277888	-0.211404	-0.146607	-0.202447	0.0758721	0.676709	0.516502	0	0	0.0704749	-0.427643	0.335474	0.702869	1.27453	0	0
1.32	0.284429	1.46346	-1.73524	1.02464	-0.147719	0.908992	0.323411	-0.117815	-0.29603	0.216833	0.0795971	0	0	-0.424232	-0.000875384	-0.132126	0.147542	0.339497	0	0	-0.254509	-0.0215932	-0.216602	-0.148005	-0.202434	0.0745179	0.675201	0.517379	0	0	0.064595	-0.423362	0.333317	0.696204	1.27802	0	0
1.33	0.241085	1.46464	-1.68709	1.02312	-0.159382	0.908632	0.319446	-0.110198	-0.297489	0.22545	0.0547197	0	0	-0.419889	-0.0156981	-0.144987	0.181848	0.346243	0	0	-0.253923	-0.0142644	-0.220736	-0.148422	-0.20222	0.0738729	0.671758	0.518338	0	0	0.0589133	-0.418993	0.331478	0.688622	1.28082	0	0
1.34	0.182288	1.46592	-1.62433	1.0213	-0.17106	0.908522	0.315781	-0.101094	-0.30058	0.235525	0.0312091	0	0	-0.412476	-0.03315	-0.159034	0.221632	0.351419	0	0	-0.253406	-0.00559594	-0.22367	-0.148156	-0.201712	0.0732047	0.666776	0.519015	0	0	0.0530607	-0.414475	0.32983	0.680441	1.28345	0	0
1.35	0.10833	1.46661	-1.54686	1.01931	-0.18283	0.908684	0.31365	-0.0917068	-0.306758	0.252559	0.015279	0	0	-0.402467	-0.0531533	-0.172773	0.267031	0.354593	0	0	-0.253242	0.00456299	-0.225414	-0.148041	-0.201266	0.0720516	0.66154	0.519575	0	0	0.0472539	-0.409546	0.328251	0.672241	1.28564	0	0
1.36	0.0281635	1.46605	-1.46313	1.01739	-0.194797	0.909128	0.312786	-0.0830448	-0.312901	0.276912	0.00849536	0	0	-0.390809	-0.0746386	-0.184487	0.3168	0.353484	0	0	-0.253232	0.0156567	-0.227079	-0.148103	-0.201797	0.0723977	0.656221	0.519704	0	0	0.0407105	-0.404008	0.326244	0.664533	1.2871	0	0
1.37	-0.0484024	1.4649	-1.38321	1.01556	-0.206979	0.909752	0.312791	-0.0749202	-0.314741	0.305088	0.00825198	0	0	-0.376732	-0.0962375	-0.193077	0.370443	0.346712	0	0	-0.252593	0.0266126	-0.228318	-0.148673	-0.20346	0.0750581	0.650845	0.518706	0	0	0.0334951	-0.39808	0.324738	0.657471	1.28797	0	0
